<?xml version="1.0" standalone="yes"?>
<svg xmlns="http://www.w3.org/2000/svg" width="443" height="309">
<path style="fill:#fefefe; stroke:none;" d="M0 0L0 309L443 309L443 0L0 0z"/>
<path style="fill:#101010; stroke:none;" d="M221 4C219.401 8.72525 216.193 13.9323 216.209 19C216.226 24.2725 219.804 30.3047 222 35C224.782 30.5995 228.215 23.3132 227.747 18C227.327 13.2309 224.524 8.50351 223 4L221 4M68 166C75.9205 165.906 79.635 161.365 85 156L101 140L162 79L180 61C183.741 57.2583 187.747 53.8319 190 49C184.578 47.2273 181.679 51.33 178 55L158 75L99 134C88.7644 144.236 76.3391 154.162 68 166M255 48C256.858 54.6177 263.266 59.2661 268 64C277.984 73.9838 288.211 83.7779 297.966 93.9853C299.504 95.5946 301.215 97.2108 301.821 99.4244C302.989 103.691 300.857 107.293 306 109L306 132L296 132C294.514 118.67 278.843 122 269 122C264.936 122 259.639 121.19 256.148 123.742C253.317 125.812 253.104 128.79 253 132L238 132L238 160C233.017 161.654 234 166.475 234 171L237 171L237 164L242 164L242 171L245 171C244.999 165.287 242.91 161.317 242.144 155.961C241.269 149.849 242 143.172 242 137L253 137L253 154C253.006 156.938 252.694 160.299 254.603 162.772C256.896 165.741 260.558 165.948 264 165.996C271.311 166.098 278.692 166.214 286 165.985C289.11 165.887 292.175 165.475 294.142 162.772C298.45 156.852 296 144 296 137C299.565 137 306.45 138.306 309.397 135.972C311.565 134.255 310.995 130.42 311 128L311 109C317.358 111.965 322.088 118.088 327 123L355 151C361.546 157.546 367.106 165.883 377 166C372.546 159.678 366.46 154.46 361 149L332 120C326.029 114.029 316.338 107.329 314 99C307.745 97.2443 303.477 91.4771 299 87L273 61C268.163 56.1633 262.454 47.3755 255 48M262.043 85.5725C253.362 88.2152 255.964 102.086 256.001 109C256.016 111.97 255.85 115.268 257.742 117.772C261.918 123.298 273.911 121.031 280 120.999C282.279 120.987 284.792 121.147 286.945 120.258C294.552 117.116 292.042 103.524 291.999 97C291.98 94.0253 292.075 90.8478 290.106 88.3943C285.678 82.8745 268.279 83.6743 262.043 85.5725z"/>
<path style="fill:#fefefe; stroke:none;" d="M263.228 91.7616C257.845 94.0148 261.249 103.227 266.775 101.199C272.432 99.1232 269.411 89.1733 263.228 91.7616M280.149 92.0471C274.576 95.087 279.243 103.761 284.772 100.777C290.454 97.7104 285.796 88.9664 280.149 92.0471z"/>
<path style="fill:#101010; stroke:none;" d="M264 96L264 99L267 99L267 96L264 96M281 96L281 99L284 99L284 96L281 96z"/>
<path style="fill:#fefefe; stroke:none;" d="M305 101L305 105L309 105C307.67 103.247 306.753 102.33 305 101M266.337 109.027C263.501 111.008 265.388 113.944 268.059 114.682C271.414 115.609 279.708 116.036 282.663 113.973C285.499 111.992 283.612 109.056 280.941 108.318C277.586 107.391 269.292 106.964 266.337 109.027z"/>
<path style="fill:#101010; stroke:none;" d="M256 175L93 175L53 175C41.4056 175 30.5532 174.657 20 180.324C-0.353186 191.253 2 211.2 2 231L2 262C2 270.202 1.81446 278.582 5.90509 286C10.1568 293.71 17.9135 298.752 26 301.771C31.0505 303.656 36.6284 304.542 42 304.91C70.7141 306.879 100.213 305 129 305L301 305L374 305C389.403 305 405.394 306.489 420 300.525C428.005 297.256 435.258 291.125 438.522 283C442.156 273.95 441 263.532 441 254L441 223C441 206.553 441.305 192.277 426 182.105C412.264 172.976 395.646 175 380 175L292 175C291.793 168.635 284.378 162.884 278.603 168.602C276.911 170.277 277.071 172.822 277 175C271.659 174.148 272.941 170.89 269.401 168.179C263.14 163.383 256.355 168.532 256 175z"/>
<path style="fill:#fefefe; stroke:none;" d="M37 178.515C26.9748 180.567 16.6998 185.113 10.9691 194C5.14948 203.025 7 214.768 7 225L7 256C7 273.581 7.2115 289.614 26 297.535C36.853 302.111 48.4946 301 60 301L116 301L317 301L380 301C392.44 301 405.291 302.486 417 297.535C435.365 289.77 436 274.312 436 257L436 226C436 216.323 437.815 204.845 433.175 196C428.719 187.505 420.023 182.297 411 179.885C397.629 176.31 382.751 178 369 178C345.006 178 320.992 177.718 297 178.004C292.633 178.056 288.368 179.037 284 178.981C228.232 178.279 172.004 178 116 178L64 178C55.3089 178 45.536 176.768 37 178.515z"/>
<path style="fill:#101010; stroke:none;" d="M36 219.454C9.19991 223.111 13.0444 269.362 41 265.546C67.6553 261.907 63.5565 215.695 36 219.454M201 219.454C174.2 223.111 178.044 269.362 206 265.546C232.655 261.907 228.557 215.695 201 219.454M268 257C260.521 259.676 252.507 263.744 245.04 258.347C234.25 250.548 235.307 228.952 249 224.653C255.856 222.5 261.763 225.769 268 228C267.195 217.574 251.512 217.768 244 220.995C234.417 225.11 231.891 234.549 232.004 244C232.13 254.598 238.254 263.367 249 265.381C256.198 266.73 267.319 265.818 268 257M277 220L277 265L305 265L305 260L283 260L283 220L277 220z"/>
<path style="fill:#fefefe; stroke:none;" d="M34.0008 224.653C16.3851 230.198 22.3647 266.843 42.9992 260.347C60.4769 254.846 54.6093 218.166 34.0008 224.653M199.001 224.653C181.385 230.198 187.365 266.843 207.999 260.347C225.477 254.846 219.609 218.166 199.001 224.653z"/>
<path style="fill:#101010; stroke:none;" d="M75 236C74.4382 234.199 74.1759 232.878 74 231L69 231L69 278L74 278L74 260C76.3466 262.432 78.618 264.583 82.0039 265.438C97.9186 269.459 102.528 246.005 95.348 236.019C90.1087 228.731 79.8292 228.144 75 236M135 259C124.027 261.508 114.162 262.155 111 249L137 249C136.77 243.663 136.128 237.273 131.786 233.572C121.437 224.75 106.623 233.722 106.04 246C105.684 253.515 107.562 260.827 115.001 264.196C121.219 267.012 133.618 267.354 135 259M151 236L151 231L146 231L146 265L151 265C151 257.938 149.076 247.468 152.318 241.015C155.026 235.625 162.171 232.943 166.486 238.148C171.545 244.25 169 257.55 169 265L174 265C174 256.601 175.715 246.01 172.891 238.004C170.519 231.277 163.539 228.477 157.005 231.429C154.632 232.501 152.88 234.257 151 236M343 230.482C323.26 232.96 326.098 268.141 347 265.518C366.67 263.049 363.829 227.868 343 230.482M376 236C375.438 234.199 375.176 232.878 375 231L370 231L370 265L375 265C375 256.362 371.774 239.8 382.014 235.742C384.21 234.872 386.688 235.021 389 235L389 230C383.576 230.237 378.984 231.158 376 236M416 260C415.689 272.852 406.208 273.701 396 271C397.681 281.301 414.342 279.142 418.91 271.895C421.482 267.816 421 262.601 421 258L421 231L416 231L416 235C413.804 233.229 411.756 231.625 408.998 230.806C386.195 224.037 386.195 270.963 408.998 264.194C411.756 263.375 413.804 261.771 416 260z"/>
<path style="fill:#fefefe; stroke:none;" d="M80.0941 235.743C69.0662 240.287 73.3009 265.617 86.9815 260.257C98.1095 255.897 93.8969 230.056 80.0941 235.743M111 244L131 244C129.58 231.283 114.193 233.346 111 244M341.019 236.028C329.861 241.806 335.611 267.049 348.956 259.972C359.977 254.128 354.204 229.199 341.019 236.028M403.043 235.743C391.895 240.201 396.439 264.525 409.985 259.257C421.253 254.874 416.71 230.279 403.043 235.743z"/>
<path style="fill:#101010; stroke:none;" d="M313 257L313 265L319 265L319 257L313 257z"/>
</svg>
